<svg xmlns="http://www.w3.org/2000/svg" xmlns:xlink="http://www.w3.org/1999/xlink" viewBox="0 0 36.95 10.21"><defs><linearGradient id="linear-gradient" x1="79.02" y1="130.6" x2="85.48" y2="130.6" gradientTransform="matrix(1, 0, 0, -1, -79.02, 136.86)" gradientUnits="userSpaceOnUse"><stop offset="0" stop-color="#f06f8d"/><stop offset="1" stop-color="#f4a079"/></linearGradient><linearGradient id="linear-gradient-2" x1="-178.16" y1="91.13" x2="-171.7" y2="91.13" gradientTransform="matrix(-1, 0, 0, 1, -141.21, -87.18)" xlink:href="#linear-gradient"/><linearGradient id="linear-gradient-3" x1="23.89" y1="224.59" x2="31.17" y2="224.59" gradientTransform="matrix(1, 0, 0, -1, 0, 230.02)" xlink:href="#linear-gradient"/></defs><title>Asset 2</title><g id="Layer_2" data-name="Layer 2"><g id="Layer_1-2" data-name="Layer 1"><path d="M3.84,0H6.21a.14.14,0,0,1,.13.14.19.19,0,0,1,0,.08l-3,4a.14.14,0,0,1-.2,0h0c-.35-.34-1.31-1.43-.71-2.47a0,0,0,0,0,0,0L3.73.05A.16.16,0,0,1,3.84,0Z" style="fill:#fff"/><path d="M1.77,2.54.05,4.81a.21.21,0,0,0,0,.28L3.47,9.54l.25.31A.33.33,0,0,0,4,10H6.22a.24.24,0,0,0,.24-.24.24.24,0,0,0,0-.14L2.18,4.19A2.33,2.33,0,0,1,1.77,2.54Z" style="fill:url(#linear-gradient)"/><path d="M33.11,10.21H30.75a.15.15,0,0,1-.14-.15.11.11,0,0,1,0-.07l3-4a.14.14,0,0,1,.2,0h0c.34.34,1.3,1.43.71,2.47l0,0-1.33,1.69A.11.11,0,0,1,33.11,10.21Z" style="fill:#fff"/><path d="M35.18,7.67,36.91,5.4a.24.24,0,0,0,0-.28L33.49.67,33.24.36A.3.3,0,0,0,33,.24H30.73a.23.23,0,0,0-.23.23.28.28,0,0,0,0,.15L34.77,6A2.33,2.33,0,0,1,35.18,7.67Z" style="fill:url(#linear-gradient-2)"/><rect x="23.89" y="2.61" width="7.28" height="5.64" rx="0.83" style="fill:url(#linear-gradient-3)"/><path d="M5.68,3.14a1.07,1.07,0,0,1,.24-.71.75.75,0,0,1,.59-.29H7.2a1.16,1.16,0,0,1,.92.46A1.69,1.69,0,0,1,8.5,3.7a1.51,1.51,0,0,1-.38,1.11A1.61,1.61,0,0,1,8.56,6a1.73,1.73,0,0,1-.4,1.16,1.22,1.22,0,0,1-1,.49H6.51a.76.76,0,0,1-.59-.3,1.06,1.06,0,0,1-.24-.7ZM6.4,4.4h.81a.54.54,0,0,0,.4-.2.79.79,0,0,0,0-1A.49.49,0,0,0,7.21,3h-.7a.09.09,0,0,0-.08,0,.16.16,0,0,0,0,.09Zm.8,2.41a.62.62,0,0,0,.46-.22,1,1,0,0,0,0-1.11.58.58,0,0,0-.46-.22H6.4V6.68a.16.16,0,0,0,0,.09.09.09,0,0,0,.08,0Z" style="fill:#fff"/><path d="M10.52,3.59a.31.31,0,0,1,.25.13.51.51,0,0,1,.11.31h0a.46.46,0,0,1-.11.3.31.31,0,0,1-.25.13h-.16a.52.52,0,0,0-.41.21.71.71,0,0,0-.16.49V7.25a.46.46,0,0,1-.11.3.33.33,0,0,1-.25.13h0a.31.31,0,0,1-.25-.13.46.46,0,0,1-.11-.3V5.15a1.71,1.71,0,0,1,.38-1.1,1.17,1.17,0,0,1,.91-.45Z" style="fill:#fff"/><path d="M11.67,3.13A.36.36,0,0,1,11.38,3a.52.52,0,0,1-.12-.35.55.55,0,0,1,.12-.35.36.36,0,0,1,.5-.08l.08.08A.57.57,0,0,1,12,3,.37.37,0,0,1,11.67,3.13Zm0,.46a.31.31,0,0,1,.25.13A.51.51,0,0,1,12,4V7.25a.48.48,0,0,1-.11.3.28.28,0,0,1-.25.12h0a.3.3,0,0,1-.25-.12.39.39,0,0,1-.11-.3V4a.45.45,0,0,1,.11-.31A.31.31,0,0,1,11.67,3.59Z" style="fill:#fff"/><path d="M15.66,2.14a.33.33,0,0,1,.25.12.51.51,0,0,1,.11.31V5.65a2.23,2.23,0,0,1-.5,1.44,1.52,1.52,0,0,1-1.19.59,1.5,1.5,0,0,1-1.19-.6,2.34,2.34,0,0,1,0-2.88,1.49,1.49,0,0,1,1.19-.6,1.29,1.29,0,0,1,1,.35V2.57a.51.51,0,0,1,.11-.31.33.33,0,0,1,.25-.12Zm-2,2.67a1.37,1.37,0,0,0,0,1.67.86.86,0,0,0,1.2.17A1.31,1.31,0,0,0,15,4.81a.86.86,0,0,0-1.2-.17A.91.91,0,0,0,13.64,4.81Z" style="fill:#fff"/><path d="M18.2,8.27a.86.86,0,0,0,.66-.35,1.26,1.26,0,0,0,.31-.83,1.05,1.05,0,0,1-1,.59A1.49,1.49,0,0,1,17,7.08a2.36,2.36,0,0,1,0-2.89,1.48,1.48,0,0,1,2.38,0,2.22,2.22,0,0,1,.5,1.44V7.09a2.15,2.15,0,0,1-.53,1.45,1.5,1.5,0,0,1-1.16.6,1.58,1.58,0,0,1-1.48-.93A.46.46,0,0,1,16.66,8a.59.59,0,0,1,0-.14.4.4,0,0,1,.22-.27h0a.31.31,0,0,1,.42.16A.93.93,0,0,0,18.2,8.27Zm1-2.66a1.22,1.22,0,0,0-.29-.81.86.86,0,0,0-.68-.34.87.87,0,0,0-.69.35,1.38,1.38,0,0,0,0,1.66.86.86,0,0,0,1.21.16.65.65,0,0,0,.17-.16,1.26,1.26,0,0,0,.28-.83Z" style="fill:#fff"/><path d="M23.61,4.79a.48.48,0,0,1,0,.18.4.4,0,0,1,0,.15.36.36,0,0,1-.18.24l-1.08.58-1,.54a.78.78,0,0,0,.7.34.87.87,0,0,0,.57-.22A1.17,1.17,0,0,0,23,6a.34.34,0,0,1,.34-.29.34.34,0,0,1,.29.19.46.46,0,0,1,.06.23.41.41,0,0,1,0,.16,2,2,0,0,1-.61,1,1.47,1.47,0,0,1-1,.38,1.5,1.5,0,0,1-1.2-.6,2.34,2.34,0,0,1,0-2.88,1.5,1.5,0,0,1,1.2-.6,1.42,1.42,0,0,1,.92.33A1.89,1.89,0,0,1,23.61,4.79Zm-1.53-.32a.88.88,0,0,0-.69.34,1.27,1.27,0,0,0-.28.84v0l1.64-.89A.77.77,0,0,0,22.08,4.47Z" style="fill:#fff"/><path d="M25.82,3.59a1.5,1.5,0,0,1,1.2.6,2.36,2.36,0,0,1,0,2.89,1.52,1.52,0,0,1-1.2.6,1.5,1.5,0,0,1-1.19-.6,2.36,2.36,0,0,1,0-2.89A1.5,1.5,0,0,1,25.82,3.59Zm0,.88a.9.9,0,0,0-.69.35,1.38,1.38,0,0,0,0,1.66.86.86,0,0,0,1.21.17.91.91,0,0,0,.17-.17,1.35,1.35,0,0,0,0-1.66.86.86,0,0,0-.69-.35Z" style="fill:#262526"/><path d="M28.73,7.25a.48.48,0,0,1-.11.3.3.3,0,0,1-.25.12h0a.3.3,0,0,1-.25-.12.48.48,0,0,1-.11-.3V5.31a1.84,1.84,0,0,1,.42-1.21,1.26,1.26,0,0,1,1.75-.26,1.54,1.54,0,0,1,.25.26,1.84,1.84,0,0,1,.42,1.21V7.25a.48.48,0,0,1-.11.3.28.28,0,0,1-.25.12h0a.32.32,0,0,1-.26-.12.48.48,0,0,1-.11-.3V5.31a.87.87,0,0,0-.2-.6A.62.62,0,0,0,29,4.59a.68.68,0,0,0-.12.12.87.87,0,0,0-.2.6Z" style="fill:#262526"/></g></g></svg>